<svg xmlns="http://www.w3.org/2000/svg" width="128" height="128" viewBox="0 0 128 128">
  <defs>
    <linearGradient id="bgAlien" x1="0" y1="0" x2="1" y2="1">
      <stop offset="0%" stop-color="#0ea5e9"/>
      <stop offset="100%" stop-color="#1f2937"/>
    </linearGradient>
  </defs>
  <rect x="8" y="8" width="112" height="112" rx="24" fill="url(#bgAlien)"/>
  <!-- Alien head -->
  <path d="M64 38c-16 0-28 10-28 24 0 18 16 32 28 32s28-14 28-32c0-14-12-24-28-24Z" fill="#93c5fd"/>
  <circle cx="52" cy="66" r="6" fill="#0b1020"/>
  <circle cx="76" cy="66" r="6" fill="#0b1020"/>
  <path d="M54 82c4 4 16 4 20 0" stroke="#0b1020" stroke-width="3" stroke-linecap="round" fill="none"/>
  <!-- Tech circuit lines -->
  <g stroke="#ffffff" stroke-width="2" stroke-linecap="round">
    <path d="M24 54h12"/>
    <circle cx="20" cy="54" r="3" fill="#fff"/>
    <path d="M92 40h12"/>
    <circle cx="108" cy="40" r="3" fill="#fff"/>
    <path d="M30 96h12"/>
    <circle cx="26" cy="96" r="3" fill="#fff"/>
    <path d="M84 100h20"/>
    <circle cx="108" cy="100" r="3" fill="#fff"/>
  </g>
  <!-- Code brackets overlay -->
  <g stroke="#ffffff" stroke-width="4" stroke-linecap="round">
    <path d="M44 30l-16 16 16 16" fill="none"/>
    <path d="M84 30l16 16-16 16" fill="none"/>
  </g>
</svg>